# xmcd
#
# Track frame offsets:
#	182
#	16202
#	39435
#	56590
#	78777
#	92207
#	113210
#	133460
#	158222
#
# Disc length: 2385 seconds
#
# Revision: 1
# Processed by: cddbd v1.4PL0 Copyright (c) Steve Scherf et al.
# Submitted via: audiograbber 1.81.03
#
DISCID=6e094f09
DTITLE=Eddie C. Campbell - Baddest Cat In The Block
DYEAR=1988
DGENRE=Blues
TTITLE0=Hey Baby
TTITLE1=Nineteen Years Old
TTITLE2=I'm In Love With You Baby
TTITLE3=Tears Are For Losers
TTITLE4=Look What You Done
TTITLE5=Early In The Morning
TTITLE6=Same Thing
TTITLE7=Cha Cha In Blues
TTITLE8=Cheaper To Keep Her
EXTD=
EXTT0=
EXTT1=
EXTT2=
EXTT3=
EXTT4=
EXTT5=
EXTT6=
EXTT7=
EXTT8=
PLAYORDER=
